<?xml version="1.0" encoding="iso-8859-1"?>
<!-- Generator: Adobe Illustrator 19.0.0, SVG Export Plug-In . SVG Version: 6.00 Build 0)  -->
<svg version="1.1" id="Layer_1" xmlns="http://www.w3.org/2000/svg" xmlns:xlink="http://www.w3.org/1999/xlink" x="0px" y="0px"
	 viewBox="0 0 509.287 509.287" style="enable-background:new 0 0 509.287 509.287;" xml:space="preserve">
<path style="fill:#F0582F;" d="M509.287,254.644C509.287,113.928,395.359,0,254.644,0S0,113.928,0,254.644
	c0,77.309,34.585,146.479,88.837,193.272h331.274C474.702,401.123,509.287,331.952,509.287,254.644z"/>
<path style="fill:#D54232;" d="M420.45,447.915H88.837c44.419,38.315,102.4,61.372,165.807,61.372S375.693,486.23,420.45,447.915z"
	/>
<path style="fill:#BDBDBE;" d="M280.074,361.791c-13.563,0-27.126-2.373-40.35-6.781l12.207-35.603
	c22.04,7.46,45.436,6.103,66.119-4.069c20.683-10.172,36.281-27.804,43.74-49.844s6.103-45.436-4.069-66.119
	s-27.804-36.281-49.844-43.74l12.207-35.603c31.534,10.85,56.625,32.89,71.205,62.728s16.615,63.407,6.103,94.94
	c-10.85,31.534-32.89,56.625-62.728,71.205C317.372,357.383,298.723,361.791,280.074,361.791z"/>
<polygon style="fill:#414753;" points="185.812,395.02 222.432,325.849 144.106,305.844 270.58,305.844 310.252,400.784 "/>
<rect x="248.865" y="47.907" transform="matrix(-0.7518 -0.6594 0.6594 -0.7518 420.5597 402.2941)" style="fill:#F1F3F7;" width="74.257" height="148.176"/>
<rect x="329.554" y="34.179" transform="matrix(-0.7518 -0.6594 0.6594 -0.7518 572.6976 320.5471)" style="fill:#DEDEDF;" width="34.247" height="36.62"/>
<polygon style="fill:#646B79;" points="175.979,214.294 159.025,178.691 208.869,154.617 226.162,190.22 "/>
<rect x="156.002" y="189.652" transform="matrix(-0.4341 -0.9009 0.9009 -0.4341 78.3229 434.6084)" style="fill:#393D47;" width="39.334" height="6.104"/>
<polygon style="fill:#646B79;" points="208.53,242.776 246.167,254.983 263.46,202.426 226.162,190.22 "/>
<rect x="210.472" y="237.283" transform="matrix(0.9498 0.3128 -0.3128 0.9498 86.7271 -59.9276)" style="fill:#393D47;" width="39.332" height="6.103"/>
<path style="fill:#BDBDBE;" d="M266.172,220.397c-33.907-9.155-61.711-33.568-75.274-66.119c4.408,1.017,10.85,0.678,17.971-1.017
	c18.649,16.275,37.298,32.551,55.947,48.826C264.477,209.547,264.816,215.989,266.172,220.397z"/>
<circle style="fill:#393D47;" cx="318.389" cy="136.307" r="39.672"/>
<circle style="fill:#646B79;" cx="318.389" cy="136.307" r="20.005"/>
<circle style="fill:#393D47;" cx="271.597" cy="348.906" r="33.229"/>
<g>
	<circle style="fill:#646B79;" cx="271.597" cy="348.906" r="16.954"/>
	<rect x="105.113" y="284.143" style="fill:#646B79;" width="180.726" height="25.43"/>
</g>
<rect x="105.113" y="284.143" style="fill:#F1F3F7;" width="180.726" height="12.546"/>
<path style="fill:#646B79;" d="M302.114,390.273H174.962c-31.873,0-57.642,25.77-57.642,57.642h242.437
	C359.756,416.042,333.987,390.273,302.114,390.273z"/>
<path style="fill:#7C828C;" d="M174.962,397.393h127.152c29.499,0,53.574,22.04,57.303,50.183h0.339
	c0-31.873-25.77-57.642-57.642-57.642H174.962c-31.873,0-57.642,25.77-57.642,57.642h0.339
	C121.388,419.433,145.462,397.393,174.962,397.393z"/>
<g>
</g>
<g>
</g>
<g>
</g>
<g>
</g>
<g>
</g>
<g>
</g>
<g>
</g>
<g>
</g>
<g>
</g>
<g>
</g>
<g>
</g>
<g>
</g>
<g>
</g>
<g>
</g>
<g>
</g>
</svg>
